<?xml version="1.0" encoding="UTF-8" standalone="no"?>
<!-- Created with Inkscape (http://www.inkscape.org/) -->

<svg
   version="1.1"
   id="svg1"
   width="265.50668"
   height="169.06667"
   viewBox="0 0 265.50668 169.06667"
   sodipodi:docname="fiserv_logo_orange_rgb (2).svg"
   inkscape:version="1.4.3 (0d15f75, 2025-12-25)"
   xmlns:inkscape="http://www.inkscape.org/namespaces/inkscape"
   xmlns:sodipodi="http://sodipodi.sourceforge.net/DTD/sodipodi-0.dtd"
   xmlns="http://www.w3.org/2000/svg"
   xmlns:svg="http://www.w3.org/2000/svg">
  <defs
     id="defs1" />
  <sodipodi:namedview
     id="namedview1"
     pagecolor="#ffffff"
     bordercolor="#000000"
     borderopacity="0.25"
     inkscape:showpageshadow="2"
     inkscape:pageopacity="0.0"
     inkscape:pagecheckerboard="0"
     inkscape:deskcolor="#d1d1d1"
     inkscape:zoom="0.15378549"
     inkscape:cx="133.30256"
     inkscape:cy="84.533331"
     inkscape:window-width="944"
     inkscape:window-height="245"
     inkscape:window-x="0"
     inkscape:window-y="38"
     inkscape:window-maximized="0"
     inkscape:current-layer="g1">
    <inkscape:page
       x="0"
       y="0"
       inkscape:label="1"
       id="page1"
       width="265.50668"
       height="169.06667"
       margin="0"
       bleed="0" />
  </sodipodi:namedview>
  <g
     id="g1"
     inkscape:groupmode="layer"
     inkscape:label="1">
    <g
       id="group-R5">
      <path
         id="path2"
         d="M 1991.27,0 H 0 V 1268.05 H 1991.27 V 0"
         style="fill:#ffffff;fill-opacity:1;fill-rule:nonzero;stroke:none"
         transform="matrix(0.13333333,0,0,-0.13333333,0,169.06667)" />
      <path
         id="path3"
         d="m 1715.58,367.582 h -91.92 v -91.945 h 91.92 v 91.945"
         style="fill:#f25221;fill-opacity:1;fill-rule:nonzero;stroke:none"
         transform="matrix(0.13333333,0,0,-0.13333333,0,169.06667)" />
      <path
         id="path4"
         d="m 1437.14,776.957 54.74,-410.937 54.68,410.937 h 85.32 l -79.8,-501.32 h -121.3 l -78.95,501.32 h 85.31"
         style="fill:#f25221;fill-opacity:1;fill-rule:nonzero;stroke:none"
         transform="matrix(0.13333333,0,0,-0.13333333,0,169.06667)" />
      <path
         id="path5"
         d="M 322.875,776.957 H 275.57 v -66.621 h 47.305 V 275.637 h 83.141 v 434.699 h 58.41 v 66.621 h -58.41 v 101.902 c 0,14.875 3.078,26.25 10.254,34.024 7.207,7.746 18.242,11.398 33.164,11.398 h 14.98 v 68.192 h -30.09 c -36.953,0 -72.531,-7.813 -89.476,-23.907 -16.914,-16.062 -21.973,-41.023 -21.973,-76.601 V 776.957"
         style="fill:#f25221;fill-opacity:1;fill-rule:nonzero;stroke:none"
         transform="matrix(0.13333333,0,0,-0.13333333,0,169.06667)" />
      <path
         id="path6"
         d="m 490.391,275.637 h 83.347 v 501.32 h -83.347 v -501.32"
         style="fill:#f25221;fill-opacity:1;fill-rule:nonzero;stroke:none"
         transform="matrix(0.13333333,0,0,-0.13333333,0,169.06667)" />
      <path
         id="path7"
         d="m 958.563,669.066 c 0,28.282 7.355,57.559 46.317,57.559 38.95,0 46.87,-28.859 46.87,-57.531 V 565.48 h -93.187 z m 0,-171.144 h 173.747 v 154.492 c -0.21,92.441 -44.65,130.324 -128.82,130.324 -87.572,0 -128.595,-37.793 -128.595,-130.918 V 397.922 c 0.242,-84.727 51.543,-128.524 128.545,-128.524 76.99,0 128.66,36.063 128.87,128.524 v 40.148 h -80.5 l 0.1,-47.578 c 0,-33.926 -12.71,-57.414 -46.79,-57.414 -34.124,0 -46.557,23.684 -46.557,57.461 v 107.383"
         style="fill:#f25221;fill-opacity:1;fill-rule:nonzero;stroke:none"
         transform="matrix(0.13333333,0,0,-0.13333333,0,169.06667)" />
      <path
         id="path8"
         d="m 761.145,560.648 c -62.848,55.34 -68.149,62.852 -68.149,103.758 0,34.864 3.027,56.074 34.34,56.074 31.285,0 35.379,-20.957 35.379,-56.472 v -46.281 h 80.32 v 75.507 c -0.262,59.289 -45.879,89.454 -117.539,89.454 -70.484,0 -116.465,-23.465 -116.851,-118.282 -0.059,-16.101 0.015,-16.101 0,-9.89 0.132,-29.805 0.273,-77.024 73.945,-140.246 l 21.101,-18.086 c 54.289,-45.77 60.247,-51.309 59.981,-105.743 -0.039,-33.554 -2.09,-58.992 -37.317,-58.992 -35.222,0 -37.429,25.625 -37.429,41.446 v 64.14 h -84.317 v -66.191 c 0,-81.426 52.989,-101.582 121.653,-101.582 68.711,0 121.785,20.34 121.785,125.136 v 8.711 c -0.188,73.211 -13.43,92.84 -86.902,157.539"
         style="fill:#f25221;fill-opacity:1;fill-rule:nonzero;stroke:none"
         transform="matrix(0.13333333,0,0,-0.13333333,0,169.06667)" />
      <path
         id="path9"
         d="m 1243.87,725.355 v 51.618 h -75.96 V 275.656 h 81.95 v 349.371 c -0.05,27.008 8.76,44.778 24.08,55.286 14.5,9.988 32.36,13.386 55.05,13.699 v 88.703 c -43.47,-0.895 -62.21,-9.481 -84.28,-55.527 l -0.84,-1.833"
         style="fill:#f25221;fill-opacity:1;fill-rule:nonzero;stroke:none"
         transform="matrix(0.13333333,0,0,-0.13333333,0,169.06667)" />
    </g>
  </g>
</svg>
