<?xml version="1.0" encoding="utf-8"?>
<!-- Generator: Adobe Illustrator 28.0.0, SVG Export Plug-In . SVG Version: 6.00 Build 0)  -->
<svg version="1.1" id="Layer_1" xmlns="http://www.w3.org/2000/svg" xmlns:xlink="http://www.w3.org/1999/xlink" x="0px" y="0px"
   viewBox="0 0 960 184" style="enable-background:new 0 0 960 184;" xml:space="preserve">
<style type="text/css">
  .st0{fill-rule:evenodd;clip-rule:evenodd;fill:#1C5EC2;}
  .st1{fill-rule:evenodd;clip-rule:evenodd;fill:#FFFFFF;}
  .st2{fill-rule:evenodd;clip-rule:evenodd;}
</style>
<path class="st2" d="M943.8,151.4c-8.3,0-15,6.7-15,15c0,8.3,6.7,15,15,15c8.3,0,15-6.7,15-15C958.8,158.1,952,151.4,943.8,151.4z"
  />
<path class="st2" d="M729.3,8.7c5.5,3.5,5.3,14.1,5.3,17.5v93.5L636.3,5.8l-0.2-0.4h-33.7v3.3c8.4,5.5,8.4,15.3,8.4,23.2v124.2
  c0,3.4,0,14.1-5.4,17.6v3.3h21.8v-3.3c-5.5-3.5-5.4-14.2-5.4-17.6V36.3l116.6,140.6h7.1V26.3c0-3.4,0.1-14,5.4-17.5V5.4h-21.8
  L729.3,8.7L729.3,8.7z"/>
<path class="st2" d="M540.1,8.7c6.6,3.3,6.6,13.8,6.6,21.6v121.5c0,7.8,0,18.4-6.6,21.7v3.3H581v-3.3c-6.6-3.3-6.6-13.8-6.6-21.7
  V30.3c0-7.8,0-18.3,6.6-21.6V5.4h-40.9V8.7z"/>
<path class="st2" d="M867.2,168.2c-0.1,0-0.1,0-0.2,0c-0.1,0-0.2,0-0.3,0c-20.6,0-35.3-8.5-44.4-17.3c-9.2-9.2-14.4-24-16.9-35.1
  c-1.5-7.8-2.5-16.1-2.5-26.7c0-33.5,12.7-53.1,21.5-61.1c9.7-9.8,21.5-14.7,38.2-14.7c21.4,0,40.9,11.4,53.4,33.4h3.4V5.4H916
  c-2.9,2.7-8.1,4.5-13.5,4.5c-5,0-8.3-1.5-16-3.5c-8.1-2-15.2-3.8-24.6-3.8c-20.7,0-38.8,6.2-54.3,17.8c-9.2,7-36.5,27.5-36.5,71.9
  s27.3,64.9,36.5,71.8c7.7,5.8,16.2,10,25.5,12.8c10.4,3.5,20.7,4.9,30.1,4.9c4.1,0,8.2-0.5,12.1-1.2c11.4-2.2,20.9-6.3,29-12
  c0.6-0.4,1.2-0.9,1.8-1.3c5.6-4.2,10.4-9.2,14.6-14.8l-7.7-7C904.7,155.4,888.6,168.2,867.2,168.2L867.2,168.2z M915.7,46.1
  C915.5,45.7,915.6,45.9,915.7,46.1L915.7,46.1z"/>
<path class="st2" d="M395.2,5.6h-61.9v3.3c6.6,3.3,6.6,13.8,6.6,21.7v121.5c0,7.8,0,18.4-6.6,21.7v3.3h40.9v-3.3
  c-6.6-3.3-6.6-13.8-6.6-21.7V97.9h27.7c5.1,0,57-0.4,57-44.8S414.3,5.2,395.2,5.6z M395.2,87.9h-27.7V16.1H393
  c16,0,29.7,10.6,29.7,37.2C422.7,79.9,406.2,87.9,395.2,87.9L395.2,87.9z"/>
<path class="st2" d="M304.3,155.9l0.1-0.2L246.6,6l-0.2-0.4h-13l-57.3,149.8c-2.1,6-7.8,16.4-14.5,18.3v3.4h29.4v-3.3
  c-6.1-2.9-7.5-7.9-5-14.6l14.4-37.9h61.3l14.2,37.9c2.5,6.7,1,11.8-5,14.6v3.3h46.1v-3.3C310.7,171.6,306.1,160.1,304.3,155.9
  L304.3,155.9z M204.4,110.9L204.4,110.9L231,41l26.7,69.8H204.4L204.4,110.9z"/>
<path class="st2" d="M161.9,89.2c0,0-15.8,0.4-25.5,0.4s-25.6-0.4-25.6-0.4v2.2c4,2.2,12.3,9.1,12.7,19c0.4,10-0.1,51.1-0.1,51.1
  s-8.3,10.1-30.5,10.1c-37,0-60.5-33.8-60.5-76.3c0-68.2,34.8-81.8,60-81.8c25.2,0,36.4,9.4,49.4,28c1.2,1.8,2.3,3.5,3.3,5.4h3.4V5.6
  h-3.4c-3.5,3.4-11.1,5.3-17.3,4.2c-1.8-0.3-4.2-1-7.2-1.8c-7.6-2.1-18.4-5.1-28.9-5.1C71,2.9,52.1,9,36.8,20.6
  c-9.2,7-16.8,15.8-22.7,25.8C5.1,61.2,0.4,78.5,0.4,96.1c0,52.6,40.6,85.6,92.6,85.6c43.5,0,56.4-17.2,56.4-17.2s-0.4-44.2,0-54.2
  c0.4-10,8.3-16.8,12.4-18.9L161.9,89.2z"/>
</svg>
